<svg width="64" height="64" viewBox="0 0 64 64" fill="none" xmlns="http://www.w3.org/2000/svg">
<circle cx="32" cy="32" r="31.5" fill="#D9D9D9" stroke="black"/>
<circle cx="32" cy="32" r="31.5" fill="#0F80DD" stroke="black"/>
<path d="M32 47C29.2433 47 27 44.7567 27 42L27.0883 36.9117L22.03 37C19.2433 37 17 34.7567 17 32C17 29.2433 19.2433 27 22 27L27.0883 26.91L27 22.03C27 19.2433 29.2433 17 32 17C34.7567 17 37 19.2433 37 22L37.0917 26.91L42.03 27C44.7567 27 47 29.2433 47 32C47 34.7567 44.7567 37 42 37L37.0917 36.9117L37 42.03C37 44.7567 34.7567 47 32 47ZM30.3333 33.6667V42.03C30.3333 42.9183 31.0817 43.6667 32 43.6667C32.9183 43.6667 33.6667 42.9183 33.6667 42V33.6667H42.03C42.9183 33.6667 43.6667 32.9183 43.6667 32C43.6667 31.0817 42.9183 30.3333 42 30.3333H33.6667V22C33.6667 21.0517 32.9183 20.3333 32 20.3333C31.0817 20.3333 30.3333 21.0817 30.3333 22V30.3333H22C21.0517 30.3333 20.3333 31.0817 20.3333 32C20.3333 32.9183 21.0817 33.6667 22 33.6667H30.3333Z" fill="black"/>
</svg>
